<?xml version="1.0" encoding="UTF-8" standalone="no"?>
<svg
   xmlns:dc="http://purl.org/dc/elements/1.1/"
   xmlns:cc="http://creativecommons.org/ns#"
   xmlns:rdf="http://www.w3.org/1999/02/22-rdf-syntax-ns#"
   xmlns:svg="http://www.w3.org/2000/svg"
   xmlns="http://www.w3.org/2000/svg"
   xmlns:sodipodi="http://sodipodi.sourceforge.net/DTD/sodipodi-0.dtd"
   xmlns:inkscape="http://www.inkscape.org/namespaces/inkscape"
   viewBox="0 0 58.999989 56.0005"
   version="1.1"
   x="0px"
   y="0px"
   id="svg3815"
   sodipodi:docname="noun_736489_cc.svg"
   inkscape:version="0.92.2 (5c3e80d, 2017-08-06)"
   width="58.999989"
   height="56.0005">
  <metadata
     id="metadata3821">
    <rdf:RDF>
      <cc:Work
         rdf:about="">
        <dc:format>image/svg+xml</dc:format>
        <dc:type
           rdf:resource="http://purl.org/dc/dcmitype/StillImage" />
        <dc:title>49 -Trebuchet- (medieval, antique, old)</dc:title>
        <cc:license
           rdf:resource="" />
      </cc:Work>
    </rdf:RDF>
  </metadata>
  <defs
     id="defs3819" />
  <sodipodi:namedview
     pagecolor="#ffffff"
     bordercolor="#666666"
     borderopacity="1"
     objecttolerance="10"
     gridtolerance="10"
     guidetolerance="10"
     inkscape:pageopacity="0"
     inkscape:pageshadow="2"
     inkscape:window-width="1600"
     inkscape:window-height="1137"
     id="namedview3817"
     showgrid="false"
     inkscape:zoom="13.4"
     inkscape:cx="29.5"
     inkscape:cy="29.955724"
     inkscape:window-x="-8"
     inkscape:window-y="-8"
     inkscape:window-maximized="1"
     inkscape:current-layer="svg3815" />
  <title
     id="title3761">49 -Trebuchet- (medieval, antique, old)</title>
  <desc
     id="desc3763">Created with Sketch.</desc>
  <g
     id="g3809"
     style="fill:none;fill-rule:evenodd;stroke:none;stroke-width:1">
    <g
       transform="translate(-1080,-834)"
       id="g3807">
      <g
         transform="translate(1081,835)"
         id="g3805">
        <path
           d="m 16,48.0005 c 0,3.314 -2.686,6 -6,6 -3.314,0 -6,-2.686 -6,-6 0,-3.314 2.686,-6 6,-6 3.314,0 6,2.686 6,6 z"
           id="path3765"
           inkscape:connector-curvature="0"
           style="stroke:#000000;stroke-width:2" />
        <path
           d="m 42,48.0005 c 0,3.314 -2.686,6 -6,6 -3.314,0 -6,-2.686 -6,-6 0,-3.314 2.686,-6 6,-6 3.314,0 6,2.686 6,6 z"
           id="path3767"
           inkscape:connector-curvature="0"
           style="stroke:#000000;stroke-width:2" />
        <path
           d="m 0,39.1818 v 7.637 c 0,0.653 0.529,1.182 1.181,1.182 H 4 c 0,-3.314 2.686,-6 6,-6 3.314,0 6,2.686 6,6 h 14 c 0,-3.314 2.686,-6 6,-6 3.314,0 6,2.686 6,6 h 2.819 c 0.652,0 1.181,-0.529 1.181,-1.182 v -7.637 c 0,-0.652 -0.529,-1.181 -1.181,-1.181 H 1.181 C 0.529,38.0008 0,38.5298 0,39.1818 Z"
           id="path3769"
           inkscape:connector-curvature="0"
           style="stroke:#000000;stroke-width:2" />
        <path
           d="m 12,48.0005 c 0,1.105 -0.895,2 -2,2 -1.105,0 -2,-0.895 -2,-2 0,-1.105 0.895,-2 2,-2 1.105,0 2,0.895 2,2"
           id="path3771"
           inkscape:connector-curvature="0"
           style="fill:#000000" />
        <path
           d="m 38,48.0005 c 0,1.105 -0.895,2 -2,2 -1.105,0 -2,-0.895 -2,-2 0,-1.105 0.895,-2 2,-2 1.105,0 2,0.895 2,2"
           id="path3773"
           inkscape:connector-curvature="0"
           style="fill:#000000" />
        <polygon
           points="19.0004,18.0005 9.0004,38.0005 13.6384,38.0005 23.0004,18.0005 "
           id="polygon3775"
           style="stroke:#000000;stroke-width:2" />
        <polygon
           points="28.9996,18.0005 38.9996,38.0005 34.3616,38.0005 24.9996,18.0005 "
           id="polygon3777"
           style="stroke:#000000;stroke-width:2" />
        <path
           d="M 29,18.0005 H 19 v -7.207 c 0,-0.438 0.355,-0.793 0.793,-0.793 h 8.414 c 0.438,0 0.793,0.355 0.793,0.793 z"
           id="path3779"
           inkscape:connector-curvature="0"
           style="stroke:#000000;stroke-width:2" />
        <path
           d="m 19,15.0005 -14,5"
           id="path3781"
           inkscape:connector-curvature="0"
           style="stroke:#000000;stroke-width:2" />
        <polygon
           points="49,30.0005 54,31.0005 57,28.0005 56,24.0005 52,22.0005 48,26.0005 "
           id="polygon3783"
           style="stroke:#000000;stroke-width:2;stroke-linecap:round;stroke-linejoin:round" />
        <path
           d="m 29,13.0008 20,-10"
           id="path3785"
           inkscape:connector-curvature="0"
           style="stroke:#000000;stroke-width:2" />
        <polygon
           points="55,0 49,0 49,6 55,6 "
           id="polygon3787"
           style="stroke:#000000;stroke-width:2;stroke-linecap:round;stroke-linejoin:round" />
        <polygon
           points="0,22.0005 5,20.0005 5,27.0005 0,27.0005 "
           id="polygon3789"
           style="stroke:#000000;stroke-width:2;stroke-linecap:round;stroke-linejoin:round" />
        <polygon
           points="5,20.0005 10,22.0005 10,27.0005 5,27.0005 "
           id="polygon3791"
           style="stroke:#000000;stroke-width:2;stroke-linecap:round;stroke-linejoin:round" />
        <path
           d="m 52,22.0005 2.124,1.062 c 0.541,-1.809 0.876,-4.305 0.876,-7.062 0,-5.523 -1.343,-10 -3,-10 -1.657,0 -3,4.477 -3,10 0,3.189 0.449,6.022 1.147,7.853 z"
           id="path3793"
           inkscape:connector-curvature="0"
           style="stroke:#000000;stroke-width:2;stroke-linecap:round;stroke-linejoin:round" />
        <path
           d="m 19,27.0005 5,11"
           id="path3795"
           inkscape:connector-curvature="0"
           style="stroke:#000000;stroke-width:2" />
        <path
           d="m 29,27.0005 -5,11"
           id="path3797"
           inkscape:connector-curvature="0"
           style="stroke:#000000;stroke-width:2" />
        <path
           d="m 46,43.0005 h 8"
           id="path3799"
           inkscape:connector-curvature="0"
           style="stroke:#000000;stroke-width:2;stroke-linecap:round" />
        <path
           d="m 51,43.0005 v 3"
           id="path3801"
           inkscape:connector-curvature="0"
           style="stroke:#000000;stroke-width:2;stroke-linecap:round" />
        <path
           d="m 25,14.0005 c 0,0.552 -0.448,1 -1,1 -0.552,0 -1,-0.448 -1,-1 0,-0.552 0.448,-1 1,-1 0.552,0 1,0.448 1,1"
           id="path3803"
           inkscape:connector-curvature="0"
           style="fill:#000000" />
      </g>
    </g>
  </g>
</svg>
