<?xml version="1.0" encoding="UTF-8" standalone="no"?>
<svg
   xmlns:dc="http://purl.org/dc/elements/1.1/"
   xmlns:cc="http://creativecommons.org/ns#"
   xmlns:rdf="http://www.w3.org/1999/02/22-rdf-syntax-ns#"
   xmlns:svg="http://www.w3.org/2000/svg"
   xmlns="http://www.w3.org/2000/svg"
   xmlns:sodipodi="http://sodipodi.sourceforge.net/DTD/sodipodi-0.dtd"
   xmlns:inkscape="http://www.inkscape.org/namespaces/inkscape"
   version="1.1"
   x="0px"
   y="0px"
   viewBox="0 0 153.995 163.67999"
   enable-background="new 0 0 164 164"
   xml:space="preserve"
   id="svg3747"
   sodipodi:docname="noun_997837_cc crown.svg"
   width="153.995"
   height="163.67999"
   inkscape:version="0.92.2 (5c3e80d, 2017-08-06)"><metadata
     id="metadata3753"><rdf:RDF><cc:Work
         rdf:about=""><dc:format>image/svg+xml</dc:format><dc:type
           rdf:resource="http://purl.org/dc/dcmitype/StillImage" /><dc:title></dc:title></cc:Work></rdf:RDF></metadata><defs
     id="defs3751" /><sodipodi:namedview
     pagecolor="#ffffff"
     bordercolor="#666666"
     borderopacity="1"
     objecttolerance="10"
     gridtolerance="10"
     guidetolerance="10"
     inkscape:pageopacity="0"
     inkscape:pageshadow="2"
     inkscape:window-width="1600"
     inkscape:window-height="1137"
     id="namedview3749"
     showgrid="false"
     inkscape:zoom="3.2561405"
     inkscape:cx="51.116894"
     inkscape:cy="32.893376"
     inkscape:window-x="-8"
     inkscape:window-y="-8"
     inkscape:window-maximized="1"
     inkscape:current-layer="svg3747" /><path
     d="m 76.975,58.185 c 30.461,-23.55 77.02,-2.956 77.02,36.768 0,14.333 -6.448,27.173 -17.482,36.205 -39.677,0 -79.356,0.028 -119.033,0.028 C 6.443,122.122 1.6130851e-8,109.348 1.6130851e-8,94.981 -9.9998387e-4,55.283 46.493,34.683 76.975,58.185 Z M 71.761,43.419 H 82.234 V 27.266 H 97.985 V 16.152 H 82.234 V 0 H 71.761 v 16.152 h -15.75 v 11.114 h 15.75 z m 65.049,101.973 c 0,6.096 0,12.192 0,18.288 -39.874,0 -79.751,0 -119.625,0 0,-6.096 0,-12.192 0,-18.288 39.874,0 79.751,0 119.625,0 z"
     id="path3741"
     inkscape:connector-curvature="0"
     style="clip-rule:evenodd;fill-rule:evenodd" /></svg>