<?xml version="1.0" encoding="UTF-8" standalone="no"?>
<svg
   xmlns:dc="http://purl.org/dc/elements/1.1/"
   xmlns:cc="http://creativecommons.org/ns#"
   xmlns:rdf="http://www.w3.org/1999/02/22-rdf-syntax-ns#"
   xmlns:svg="http://www.w3.org/2000/svg"
   xmlns="http://www.w3.org/2000/svg"
   xmlns:sodipodi="http://sodipodi.sourceforge.net/DTD/sodipodi-0.dtd"
   xmlns:inkscape="http://www.inkscape.org/namespaces/inkscape"
   version="1.1"
   x="0px"
   y="0px"
   viewBox="0 0 73.229752 57.082947"
   enable-background="new 0 0 100 100"
   xml:space="preserve"
   id="svg4001"
   sodipodi:docname="noun_220014_cc.svg"
   width="73.229752"
   height="57.082947"
   inkscape:version="0.92.2 (5c3e80d, 2017-08-06)"><metadata
     id="metadata4007"><rdf:RDF><cc:Work
         rdf:about=""><dc:format>image/svg+xml</dc:format><dc:type
           rdf:resource="http://purl.org/dc/dcmitype/StillImage" /></cc:Work></rdf:RDF></metadata><defs
     id="defs4005" /><sodipodi:namedview
     pagecolor="#ffffff"
     bordercolor="#666666"
     borderopacity="1"
     objecttolerance="10"
     gridtolerance="10"
     guidetolerance="10"
     inkscape:pageopacity="0"
     inkscape:pageshadow="2"
     inkscape:window-width="1600"
     inkscape:window-height="1137"
     id="namedview4003"
     showgrid="false"
     inkscape:zoom="5.3400704"
     inkscape:cx="44.162138"
     inkscape:cy="17.137464"
     inkscape:window-x="-8"
     inkscape:window-y="-8"
     inkscape:window-maximized="1"
     inkscape:current-layer="svg4001" /><g
     display="none"
     id="g3983"
     style="display:none"
     transform="translate(-13.385,-21.459055)"><path
       display="inline"
       d="m 50,73.372 c -0.712,0 -1.423,-0.272 -1.966,-0.815 L 25.215,49.739 c -2.557,-2.557 -3.965,-5.956 -3.965,-9.573 0,-3.616 1.408,-7.016 3.965,-9.573 2.556,-2.556 5.956,-3.965 9.572,-3.965 3.616,0 7.016,1.408 9.573,3.965 l 5.64,5.64 5.64,-5.639 c 2.556,-2.557 5.956,-3.965 9.573,-3.965 3.616,0 7.016,1.408 9.573,3.965 2.556,2.556 3.965,5.956 3.965,9.572 0,3.616 -1.408,7.016 -3.965,9.573 L 51.966,72.557 C 51.423,73.1 50.712,73.372 50,73.372 Z M 34.787,32.191 c -2.13,0 -4.132,0.83 -5.639,2.336 -1.507,1.507 -2.336,3.509 -2.336,5.639 0,2.13 0.83,4.133 2.336,5.64 L 50,66.658 70.852,45.806 c 1.506,-1.507 2.336,-3.51 2.336,-5.64 0,-2.13 -0.83,-4.132 -2.336,-5.639 -1.507,-1.507 -3.509,-2.336 -5.639,-2.336 -2.131,0 -4.133,0.83 -5.639,2.336 l -7.607,7.606 c -1.086,1.086 -2.846,1.086 -3.933,0 l -7.606,-7.606 c -1.508,-1.506 -3.51,-2.336 -5.641,-2.336 z"
       id="path3981"
       inkscape:connector-curvature="0"
       style="display:inline" /></g><g
     display="none"
     id="g3987"
     style="display:none"
     transform="translate(-13.385,-21.459055)"><path
       display="inline"
       d="M 84.085,46.473 V 29.06 c 0,-0.835 -0.677,-1.512 -1.512,-1.512 h -0.815 v -7.795 c 0,-0.835 -0.677,-1.512 -1.512,-1.512 H 73.51 l -1.788,-3.787 c -0.25,-0.529 -0.782,-0.866 -1.367,-0.866 h -0.191 c -0.18,0 -0.358,0.032 -0.526,0.094 l -3.986,1.48 -2.454,-5.346 C 62.952,9.279 62.415,8.935 61.824,8.935 h -0.191 c -0.161,0 -0.321,0.026 -0.474,0.076 l -27.955,9.23 h -13.45 c -3.4,0 -6.165,2.766 -6.165,6.165 V 84.9 c 0,3.4 2.766,6.165 6.165,6.165 h 62.819 c 0.835,0 1.512,-0.677 1.512,-1.512 V 72.14 c 1.367,-0.588 2.326,-1.947 2.326,-3.527 V 50 c 0.001,-1.58 -0.959,-2.939 -2.326,-3.527 z M 69.552,16.94 74.56,27.548 h -3.869 c 0.257,-0.602 0.259,-1.231 0,-1.888 -0.265,-0.675 -0.673,-1.117 -1.222,-1.327 -0.549,-0.21 -1.291,-0.258 -2.225,-0.145 l -0.667,-1.695 c 0.47,-0.049 1.022,0.006 1.655,0.164 l 0.419,-1.769 c -0.99,-0.236 -1.899,-0.255 -2.727,-0.056 l -0.236,-0.6 -1.248,0.491 0.227,0.577 c -0.68,0.367 -1.154,0.855 -1.423,1.463 -0.268,0.608 -0.27,1.248 -0.006,1.919 0.264,0.671 0.658,1.109 1.183,1.315 0.525,0.206 1.241,0.253 2.148,0.141 l 0.554,1.41 h -1.841 c -0.03,-0.01 -0.056,-0.017 -0.086,-0.027 l -0.009,0.027 H 47.261 c 0,0 -4.305,-0.733 -1.919,-1.619 z m -1.021,10.52 -0.569,-1.448 c 0.265,0.005 0.462,0.045 0.591,0.121 0.13,0.076 0.227,0.196 0.292,0.361 0.142,0.362 0.037,0.684 -0.314,0.966 z m -2.683,-3.159 c -0.402,-0.032 -0.665,-0.205 -0.788,-0.519 -0.124,-0.314 -0.04,-0.596 0.252,-0.846 z m -4.859,-12.049 1.82,3.966 -30.515,11.33 H 20.938 c 0,0 -1.92,-0.087 -1.93,-1.435 z M 81.061,88.041 H 19.754 c -1.732,0 -3.141,-1.409 -3.141,-3.141 V 29.702 c 0.921,0.549 1.993,0.87 3.141,0.87 h 61.308 v 20.243 h -13.45 c -0.676,-2.671 -3.1,-4.653 -5.978,-4.653 H 45.347 c -0.835,0 -1.512,0.677 -1.512,1.512 0,1.146 0.314,2.221 0.862,3.141 h -6.33 c -2.117,0 -3.839,1.722 -3.839,3.839 0,0.279 0.03,0.552 0.087,0.814 h -0.902 c -2.117,0 -3.839,1.722 -3.839,3.839 0,2.117 1.722,3.839 3.839,3.839 h 0.902 c -0.057,0.263 -0.087,0.535 -0.087,0.815 0,2.116 1.722,3.838 3.839,3.838 h 0.902 c -0.057,0.263 -0.087,0.535 -0.087,0.815 0,2.117 1.722,3.839 3.838,3.839 h 25.563 c 6.892,0 12.478,5.587 12.478,12.478 z m 2.327,-19.428 c 0,0.449 -0.365,0.815 -0.814,0.815 H 43.02 c -0.449,0 -0.814,-0.366 -0.814,-0.815 0,-0.449 0.365,-0.815 0.814,-0.815 h 9.971 c 0.835,0 1.512,-0.677 1.512,-1.512 0,-0.835 -0.677,-1.512 -1.512,-1.512 H 43.02 38.367 c -0.449,0 -0.815,-0.365 -0.815,-0.814 0,-0.449 0.366,-0.815 0.815,-0.815 h 13.96 c 0.835,0 1.512,-0.677 1.512,-1.512 0,-0.835 -0.677,-1.512 -1.512,-1.512 h -13.96 -4.653 c -0.449,0 -0.815,-0.366 -0.815,-0.815 0,-0.449 0.366,-0.815 0.815,-0.815 h 4.653 13.96 c 0.835,0 1.512,-0.677 1.512,-1.512 0,-0.835 -0.677,-1.512 -1.512,-1.512 h -13.96 c -0.449,0 -0.815,-0.365 -0.815,-0.814 0,-0.449 0.366,-0.815 0.815,-0.815 h 16.286 c 0.835,0 1.512,-0.677 1.512,-1.512 0,-0.835 -0.677,-1.512 -1.512,-1.512 H 50 c -1.184,0 -2.218,-0.659 -2.753,-1.629 h 14.386 c 1.732,0 3.141,1.409 3.141,3.141 0,0.835 0.677,1.512 1.512,1.512 h 16.287 c 0.28,0 0.552,-0.032 0.814,-0.089 v 14.864 z"
       id="path3985"
       inkscape:connector-curvature="0"
       style="display:inline" /></g><g
     id="g3995"
     transform="translate(-13.385,-21.459055)"><path
       d="m 35.156,46.874 c -1.093,0 -1.979,0.886 -1.979,1.979 0,1.093 0.886,1.979 1.979,1.979 h 5.937 c 1.093,0 1.979,-0.886 1.979,-1.979 0,-1.093 -0.886,-1.979 -1.979,-1.979 z"
       id="path3989"
       inkscape:connector-curvature="0" /><path
       d="M 86.035,25.161 C 79.079,18.205 64.668,21.338 53.847,32.158 l -8.397,8.397 c -0.386,0.386 -0.58,0.893 -0.58,1.399 V 52.33 l -2.459,2.459 h -7.255 c -1.093,0 -1.979,0.886 -1.979,1.979 0,1.093 0.886,1.979 1.979,1.979 h 3.296 4.62 0.978 l 6.418,-6.418 h 10.376 c 0.507,0 1.013,-0.193 1.399,-0.58 L 86.035,27.96 c 0.773,-0.772 0.773,-2.026 0,-2.799 z M 54.667,36.937 v 5.598 l -2.219,2.219 -3.619,3.619 v 0 -5.598 z m 0.579,10.616 11.196,-11.196 c 0.773,-0.773 0.773,-2.026 0,-2.799 -0.773,-0.773 -2.026,-0.773 -2.799,0 l -5.018,5.018 v -5.462 c 8.083,-7.079 17.561,-9.667 23.021,-6.363 L 60.024,48.373 h -5.598 z"
       id="path3991"
       inkscape:connector-curvature="0" /><path
       d="M 66.823,66.666 H 56.927 V 56.77 c 0,-1.093 -0.886,-1.979 -1.979,-1.979 -1.093,0 -1.979,0.886 -1.979,1.979 v 9.896 H 39.115 c -1.093,0 -1.979,0.886 -1.979,1.979 v 1.979 c 0,2.186 -1.772,3.958 -3.958,3.958 -2.186,0 -3.958,-1.772 -3.958,-3.958 V 42.916 c 0,-1.444 -0.393,-2.793 -1.068,-3.958 h 14.922 c 1.093,0 1.979,-0.886 1.979,-1.979 C 45.053,35.886 44.167,35 43.074,35 H 21.302 c -4.372,0 -7.917,3.544 -7.917,7.917 v 1.979 c 0,1.093 0.886,1.979 1.979,1.979 h 9.896 v 23.75 c 0,4.372 3.544,7.917 7.917,7.917 h 27.708 c 4.372,0 7.917,-3.544 7.917,-7.917 v -1.979 c 0,-1.094 -0.886,-1.98 -1.979,-1.98 z M 17.344,42.916 c 0,-2.186 1.772,-3.958 3.958,-3.958 2.186,0 3.958,1.772 3.958,3.958 z M 60.885,74.582 H 40.026 c 0.675,-1.165 1.068,-2.515 1.068,-3.958 h 11.875 3.958 7.917 c 0,2.186 -1.772,3.958 -3.959,3.958 z"
       id="path3993"
       inkscape:connector-curvature="0" /></g></svg>