<?xml version="1.0" encoding="UTF-8" standalone="no"?>
<svg
   xmlns:dc="http://purl.org/dc/elements/1.1/"
   xmlns:cc="http://creativecommons.org/ns#"
   xmlns:rdf="http://www.w3.org/1999/02/22-rdf-syntax-ns#"
   xmlns:svg="http://www.w3.org/2000/svg"
   xmlns="http://www.w3.org/2000/svg"
   xmlns:sodipodi="http://sodipodi.sourceforge.net/DTD/sodipodi-0.dtd"
   xmlns:inkscape="http://www.inkscape.org/namespaces/inkscape"
   version="1.1"
   x="0px"
   y="0px"
   viewBox="0 0 49.152 71.995003"
   enable-background="new 0 0 100 100"
   xml:space="preserve"
   id="svg3719"
   sodipodi:docname="noun_189153_cc calipers.svg"
   width="49.152"
   height="71.995003"
   inkscape:version="0.92.2 (5c3e80d, 2017-08-06)"><metadata
     id="metadata3725"><rdf:RDF><cc:Work
         rdf:about=""><dc:format>image/svg+xml</dc:format><dc:type
           rdf:resource="http://purl.org/dc/dcmitype/StillImage" /><dc:title></dc:title></cc:Work></rdf:RDF></metadata><defs
     id="defs3723" /><sodipodi:namedview
     pagecolor="#ffffff"
     bordercolor="#666666"
     borderopacity="1"
     objecttolerance="10"
     gridtolerance="10"
     guidetolerance="10"
     inkscape:pageopacity="0"
     inkscape:pageshadow="2"
     inkscape:window-width="1600"
     inkscape:window-height="1137"
     id="namedview3721"
     showgrid="false"
     inkscape:zoom="7.504"
     inkscape:cx="24.576"
     inkscape:cy="23.497"
     inkscape:window-x="-8"
     inkscape:window-y="-8"
     inkscape:window-maximized="1"
     inkscape:current-layer="svg3719" /><path
     d="m 44.669,65.232 4.483,-2.135 -9.573,-20.102 c 0.836,-0.643 1.646,-1.32 2.4,-2.074 2.236,-2.235 3.991,-4.838 5.216,-7.736 L 42.59,31.238 c -0.973,2.302 -2.367,4.37 -4.146,6.147 -0.344,0.344 -0.707,0.66 -1.072,0.975 l -3.716,-7.802 c 1.466,-1.898 2.349,-4.27 2.349,-6.849 0,-4.923 -3.188,-9.107 -7.603,-10.622 V 3.75 C 28.402,1.679 26.723,0 24.652,0 c -2.071,0 -3.75,1.679 -3.75,3.75 v 9.423 c -4.292,1.581 -7.368,5.701 -7.368,10.536 0,2.438 0.789,4.69 2.113,6.534 l -3.749,7.872 C 11.628,37.874 11.352,37.642 11.094,37.385 9.316,35.607 7.921,33.538 6.948,31.237 l -4.605,1.949 c 1.227,2.896 2.98,5.498 5.216,7.734 0.669,0.67 1.383,1.281 2.116,1.863 L 0,63.098 l 4.552,2.167 -2.3,4.954 c -0.291,0.626 -0.019,1.369 0.607,1.66 0.171,0.079 0.35,0.116 0.525,0.116 0.472,0 0.923,-0.268 1.135,-0.724 l 3.303,-7.115 c 0.013,-0.026 0.009,-0.055 0.02,-0.081 l 8.372,-17.577 c 2.729,1.026 5.602,1.551 8.556,1.551 2.835,0 5.597,-0.481 8.229,-1.429 l 9.383,19.702 0.03,-0.015 2.38,4.977 c 0.215,0.449 0.662,0.711 1.129,0.711 0.181,0 0.364,-0.039 0.538,-0.122 0.623,-0.298 0.887,-1.044 0.589,-1.667 z M 30.829,42.064 c -1.597,0.524 -3.254,0.826 -4.927,0.923 v -3.803 c 0,-0.69 -0.56,-1.25 -1.25,-1.25 -0.69,0 -1.25,0.56 -1.25,1.25 v 3.791 c -1.71,-0.119 -3.397,-0.464 -5.021,-1.03 l 3.518,-7.385 c 10e-4,0 0.002,10e-4 0.003,10e-4 v -5.297 h 0.047 c -2.023,-1.032 -3.415,-3.132 -3.415,-5.555 0,-3.438 2.797,-6.236 6.235,-6.236 3.438,0 6.235,2.798 6.235,6.236 0,2.497 -1.479,4.649 -3.603,5.646 v 5.515 z"
     id="path3713"
     inkscape:connector-curvature="0" /></svg>