<?xml version="1.0" encoding="UTF-8" standalone="no"?>
<svg
   xmlns:dc="http://purl.org/dc/elements/1.1/"
   xmlns:cc="http://creativecommons.org/ns#"
   xmlns:rdf="http://www.w3.org/1999/02/22-rdf-syntax-ns#"
   xmlns:svg="http://www.w3.org/2000/svg"
   xmlns="http://www.w3.org/2000/svg"
   xmlns:sodipodi="http://sodipodi.sourceforge.net/DTD/sodipodi-0.dtd"
   xmlns:inkscape="http://www.inkscape.org/namespaces/inkscape"
   version="1.1"
   x="0px"
   y="0px"
   viewBox="0 0 32 32"
   enable-background="new 0 0 32 32"
   xml:space="preserve"
   id="svg3913"
   sodipodi:docname="noun_559374_cc.svg"
   width="32"
   height="32"
   inkscape:version="0.92.2 (5c3e80d, 2017-08-06)"><metadata
     id="metadata3919"><rdf:RDF><cc:Work
         rdf:about=""><dc:format>image/svg+xml</dc:format><dc:type
           rdf:resource="http://purl.org/dc/dcmitype/StillImage" /></cc:Work></rdf:RDF></metadata><defs
     id="defs3917" /><sodipodi:namedview
     pagecolor="#ffffff"
     bordercolor="#666666"
     borderopacity="1"
     objecttolerance="10"
     gridtolerance="10"
     guidetolerance="10"
     inkscape:pageopacity="0"
     inkscape:pageshadow="2"
     inkscape:window-width="1264"
     inkscape:window-height="1040"
     id="namedview3915"
     showgrid="false"
     inkscape:zoom="5.9"
     inkscape:cx="16"
     inkscape:cy="12"
     inkscape:window-x="0"
     inkscape:window-y="0"
     inkscape:window-maximized="0"
     inkscape:current-layer="svg3913" /><g
     id="g3907"><path
       d="M 31,32 H 16 c -0.55,0 -1,-0.45 -1,-1 v -8 c 0,-0.41 -0.15,-4 -4,-4 -3.95,0 -4,3.84 -4,4 v 8 c 0,0.55 -0.45,1 -1,1 H 1 C 0.45,32 0,31.55 0,31 V 1 C 0,0.45 0.45,0 1,0 H 5 C 5.55,0 6,0.45 6,1 V 4 H 8 V 1 C 8,0.45 8.45,0 9,0 h 4 c 0.55,0 1,0.45 1,1 v 3 h 2 V 1 c 0,-0.55 0.45,-1 1,-1 h 4 c 0.55,0 1,0.45 1,1 v 27 c 0,0.55 -0.45,1 -1,1 -0.55,0 -1,-0.45 -1,-1 V 2 h -2 v 3 c 0,0.55 -0.45,1 -1,1 H 13 C 12.45,6 12,5.55 12,5 V 2 H 10 V 5 C 10,5.55 9.55,6 9,6 H 5 C 4.45,6 4,5.55 4,5 V 2 H 2 v 28 h 3 v -7 c 0,-2.08 1.25,-6 6,-6 4.75,0 6,3.92 6,6 v 7 H 30 V 2 h -1 v 3 c 0,0.55 -0.45,1 -1,1 H 24 C 23.45,6 23,5.55 23,5 V 1 c 0,-0.55 0.45,-1 1,-1 0.55,0 1,0.45 1,1 v 3 h 2 V 1 c 0,-0.55 0.45,-1 1,-1 h 3 c 0.55,0 1,0.45 1,1 v 30 c 0,0.55 -0.45,1 -1,1 z"
       id="path3901"
       inkscape:connector-curvature="0" /><path
       d="m 26,15 c -0.55,0 -1,-0.45 -1,-1 v -2 c 0,-0.55 0.45,-1 1,-1 0.55,0 1,0.45 1,1 v 2 c 0,0.55 -0.45,1 -1,1 z"
       id="path3903"
       inkscape:connector-curvature="0" /><path
       d="m 26,21 c -0.55,0 -1,-0.45 -1,-1 v -2 c 0,-0.55 0.45,-1 1,-1 0.55,0 1,0.45 1,1 v 2 c 0,0.55 -0.45,1 -1,1 z"
       id="path3905"
       inkscape:connector-curvature="0" /></g></svg>