<?xml version="1.0" encoding="UTF-8" standalone="no"?>
<svg
   xmlns:dc="http://purl.org/dc/elements/1.1/"
   xmlns:cc="http://creativecommons.org/ns#"
   xmlns:rdf="http://www.w3.org/1999/02/22-rdf-syntax-ns#"
   xmlns:svg="http://www.w3.org/2000/svg"
   xmlns="http://www.w3.org/2000/svg"
   xmlns:sodipodi="http://sodipodi.sourceforge.net/DTD/sodipodi-0.dtd"
   xmlns:inkscape="http://www.inkscape.org/namespaces/inkscape"
   version="1.1"
   x="0px"
   y="0px"
   viewBox="0 0 94.724998 53.230999"
   enable-background="new 0 0 100 100"
   xml:space="preserve"
   id="svg3775"
   sodipodi:docname="noun_1023751_cc horse.svg"
   width="94.724998"
   height="53.230999"
   inkscape:version="0.92.2 (5c3e80d, 2017-08-06)"><metadata
     id="metadata3781"><rdf:RDF><cc:Work
         rdf:about=""><dc:format>image/svg+xml</dc:format><dc:type
           rdf:resource="http://purl.org/dc/dcmitype/StillImage" /><dc:title></dc:title></cc:Work></rdf:RDF></metadata><defs
     id="defs3779" /><sodipodi:namedview
     pagecolor="#ffffff"
     bordercolor="#666666"
     borderopacity="1"
     objecttolerance="10"
     gridtolerance="10"
     guidetolerance="10"
     inkscape:pageopacity="0"
     inkscape:pageshadow="2"
     inkscape:window-width="1600"
     inkscape:window-height="1137"
     id="namedview3777"
     showgrid="false"
     inkscape:zoom="5.3400704"
     inkscape:cx="38.311788"
     inkscape:cy="26.454688"
     inkscape:window-x="-8"
     inkscape:window-y="-8"
     inkscape:window-maximized="1"
     inkscape:current-layer="svg3775" /><path
     d="m 55.668,14.436 c 0,0 -4.878,5.633 -14.081,5.481 -9.202,-0.15 -9.354,0.377 -12.145,2.339 0,0 -3.293,-0.629 -5.606,-2.741 -2.313,-2.112 -3.521,-2.765 -6.438,-3.872 0,0 1.509,1.61 1.71,3.621 0,0 -1.357,-1.357 -3.57,-2.213 -2.213,-0.856 -3.922,-0.301 -5.48,-1.709 0,0 0.804,3.318 2.814,4.224 0,0 -2.111,-0.754 -5.078,-0.201 -2.967,0.553 -2.917,1.76 -5.432,1.609 0,0 1.309,1.458 3.371,1.709 0,0 -4.074,1.057 -5.733,2.616 0,0 3.722,2.313 8.649,1.357 0,0 -1.157,1.509 -3.27,2.212 0,0 4.375,1.509 8.699,-0.805 0,0 -1.156,2.012 -2.916,2.766 0,0 7.393,-0.754 10.662,-4.475 3.268,-3.722 7.229,-2.401 6.01,-0.629 -1.221,1.772 -1.887,4.853 -2.34,8.825 -0.451,3.973 -1.81,2.564 -3.821,2.515 -2.013,-0.051 -2.565,5.003 -7.669,7.417 0,0 -1.686,-0.176 -2.49,0.327 -0.804,0.502 -0.854,1.094 -1.063,1.659 0,0 -1.526,-0.094 -2.469,0.452 0,0 -0.133,3.603 2.564,5.563 0,0 1.584,-1.414 2.018,-3.658 0,0 2.15,-0.622 2.602,-2.131 0.453,-1.509 5.111,-3.13 8.316,-4.865 3.206,-1.735 6.539,1.923 12.521,-4.413 0,0 1.761,1.358 0.755,3.118 -1.006,1.76 -0.302,2.363 1.91,3.621 2.214,1.257 9.329,1.684 11.038,4.5 0,0 -0.252,1.082 0.528,1.71 0,0 -0.401,0.628 -0.629,1.635 0,0 2.313,1.182 5.306,1.231 0,0 0.025,-2.74 -1.559,-4.022 0,0 0.352,-2.842 -2.54,-3.923 -2.891,-1.081 -8.674,-3.596 -7.718,-5.934 0.955,-2.339 1.91,-0.729 4.449,-3.219 0,0 5.406,3.948 16.57,1.282 0,0 0.83,1.357 2.237,1.408 1.408,0.051 3.243,-1.533 4.853,-1.081 1.61,0.452 7.041,1.156 2.992,4.249 0,0 -1.609,-0.163 -1.257,1.081 l -1.886,0.403 c 0,0 0.479,3.368 3.043,4.525 0,0 1.08,-1.61 1.056,-3.47 0,0 1.659,-0.126 1.985,-1.56 0.328,-1.433 1.761,-1.559 1.183,-4.249 0,0 2.288,-0.251 4.198,1.132 1.912,1.383 1.157,1.383 2.968,1.659 1.811,0.277 4.224,1.584 4.878,3.445 0,0 -0.554,1.156 0.779,1.634 0,0 -0.528,0.591 -0.792,1.383 0,0 1.433,1.32 4.375,1.132 0,0 -0.151,-2.264 -1.282,-3.659 0,0 -0.113,-1.471 -1.471,-1.885 0,0 -2.074,-2.188 -3.433,-3.81 -1.357,-1.622 -3.62,-3.206 -5.884,-3.583 -2.262,-0.377 -3.332,-1.295 -3.332,-1.295 l -1.256,-0.478 c 0,0 0.226,-1.484 -0.252,-2.615 -0.478,-1.131 -1.685,-1.735 -5.029,-0.629 0,0 -0.478,-3.594 -2.237,-5.404 -1.759,-1.81 0.554,-6.136 0.854,-8.146 0.302,-2.012 2.264,-4.174 5.129,-2.414 2.867,1.76 3.408,-0.102 6.84,3.443 0,0 0.642,2.074 2.226,0.83 1.584,-1.245 3.809,-1.886 0.151,-5.732 -3.659,-3.848 -2.527,-4.941 -5.508,-7.053 0,0 -0.088,-2.302 0.816,-3.407 0,0 -1.559,-0.101 -2.313,0.704 0,0 -0.805,-0.955 -0.754,-2.414 0,0 -1.257,0.403 -1.961,2.263 0,0 -2.062,-1.961 -5.029,-2.263 C 68.033,1.257 65.268,0 65.268,0 c 0,0 1.006,2.766 2.514,3.771 0,0 -2.765,-1.157 -4.475,-0.956 -1.711,0.201 -2.967,0.453 -4.576,-0.101 0,0 1.659,3.067 4.827,3.57 0,0 -3.57,-0.805 -6.135,0.805 -2.565,1.609 -4.626,1.308 -4.626,1.308 0,0 1.458,2.062 4.777,2.263 0,0 -3.521,2.515 -7.594,2.313 0.005,0.005 2.117,1.867 5.688,1.463 z"
     id="path3769"
     inkscape:connector-curvature="0" /></svg>