<?xml version="1.0" encoding="UTF-8" standalone="no"?>
<svg
   xmlns:dc="http://purl.org/dc/elements/1.1/"
   xmlns:cc="http://creativecommons.org/ns#"
   xmlns:rdf="http://www.w3.org/1999/02/22-rdf-syntax-ns#"
   xmlns:svg="http://www.w3.org/2000/svg"
   xmlns="http://www.w3.org/2000/svg"
   xmlns:sodipodi="http://sodipodi.sourceforge.net/DTD/sodipodi-0.dtd"
   xmlns:inkscape="http://www.inkscape.org/namespaces/inkscape"
   version="1.1"
   x="0px"
   y="0px"
   viewBox="0 0 85.208008 80.964325"
   enable-background="new 0 0 100 100"
   xml:space="preserve"
   id="svg3945"
   sodipodi:docname="noun_962242_cc.svg"
   width="85.208008"
   height="80.964325"
   inkscape:version="0.92.2 (5c3e80d, 2017-08-06)"><metadata
     id="metadata3951"><rdf:RDF><cc:Work
         rdf:about=""><dc:format>image/svg+xml</dc:format><dc:type
           rdf:resource="http://purl.org/dc/dcmitype/StillImage" /></cc:Work></rdf:RDF></metadata><defs
     id="defs3949" /><sodipodi:namedview
     pagecolor="#ffffff"
     bordercolor="#666666"
     borderopacity="1"
     objecttolerance="10"
     gridtolerance="10"
     guidetolerance="10"
     inkscape:pageopacity="0"
     inkscape:pageshadow="2"
     inkscape:window-width="1600"
     inkscape:window-height="1137"
     id="namedview3947"
     showgrid="false"
     inkscape:zoom="6.6576842"
     inkscape:cx="51.810963"
     inkscape:cy="31.111076"
     inkscape:window-x="-8"
     inkscape:window-y="-8"
     inkscape:window-maximized="1"
     inkscape:current-layer="svg3945" /><g
     id="g3939"
     transform="translate(-7.3979965,-9.5256742)"><path
       d="m 82.651,90.49 c -10e-4,0 -10e-4,0 0,0 -1.514,0 -2.937,-0.59 -4.006,-1.659 L 35.298,42.547 24.243,53.602 c -1.307,1.313 -3.609,1.321 -4.929,0.001 L 8.417,42.705 C 7.061,41.347 7.058,39.137 8.41,37.778 l 19.691,-19.69 16.586,-8.054 c 1.513,-0.823 3.239,-0.629 4.319,0.454 l 6.709,6.711 c 0.66,0.659 1.023,1.537 1.022,2.47 -0.001,0.932 -0.366,1.808 -1.028,2.465 l -11.048,11.05 46.226,43.29 c 1.129,1.126 1.719,2.548 1.719,4.062 0.001,1.514 -0.589,2.938 -1.661,4.008 l -4.287,4.288 c -1.071,1.069 -2.494,1.658 -4.007,1.658 z M 39.879,40.123 82.238,85.354 c 0.104,0.102 0.287,0.136 0.413,0.136 v 0 c 0.126,0 0.31,-0.034 0.472,-0.195 l 4.287,-4.288 c 0.162,-0.162 0.195,-0.346 0.195,-0.471 0,-0.125 -0.033,-0.308 -0.194,-0.468 L 42.237,37.764 Z m -26.858,0.115 8.756,8.757 29.332,-29.332 -4.838,-4.84 -15.229,7.395 z"
       id="path3937"
       inkscape:connector-curvature="0" /></g></svg>